# xmcd CD database file
#
# Track frame offsets:
#	150
#	18185
#	33505
#	68860
#
# Disc length: 1433 seconds
#
# Revision: 4
# Processed by: cddbd v1.5.2PL0 Copyright (c) Steve Scherf et al.
# Submitted via: CDex 1.50
#
DISCID=2a059704
DTITLE=Judy Cheeks - This Time - Respect
DYEAR=1995
DGENRE=House
TTITLE0=This Time (Edit)
TTITLE1=Respect (Radio Edit)
TTITLE2=Respect (Bottom Dollar Club Mix)
TTITLE3=Respect (Dream Team TNT Mix)
EXTD=YEAR: 1995
EXTT0=
EXTT1=
EXTT2=
EXTT3=
PLAYORDER=
